<?xml version="1.0" encoding="UTF-8" ?>
<!DOCTYPE svg PUBLIC "-//W3C//DTD SVG 1.1//EN" "http://www.w3.org/Graphics/SVG/1.1/DTD/svg11.dtd">
<svg width="635pt" height="635pt" viewBox="0 0 635 635" version="1.1" xmlns="http://www.w3.org/2000/svg">
    <g id="#ffffffff">
    </g>
    <g id="#f6efa4ff">
        <path fill="#f6efa4" opacity="1.00"
              d=" M 314.29 15.11 C 314.78 15.25 315.75 15.52 316.24 15.66 C 321.77 36.38 327.50 57.04 333.09 77.74 C 335.99 87.07 337.85 96.69 341.04 105.93 C 344.55 116.75 347.02 127.88 350.44 138.73 C 351.89 142.53 349.81 146.52 346.69 148.74 C 340.34 153.17 332.56 155.18 324.96 156.08 C 311.08 156.93 296.08 156.86 283.98 149.06 C 280.27 146.87 278.38 142.21 279.94 138.12 C 283.31 127.25 285.85 116.14 289.26 105.28 C 293.84 90.81 297.32 76.03 301.56 61.46 C 305.72 45.98 310.10 30.57 314.29 15.11 Z"/>
    </g>
    <g id="#e0aeffff">
        <path fill="#e0aeff" opacity="1.00"
              d=" M 232.16 116.22 C 250.71 110.48 269.84 106.35 289.26 105.28 C 285.85 116.14 283.31 127.25 279.94 138.12 C 278.38 142.21 280.27 146.87 283.98 149.06 C 296.08 156.86 311.08 156.93 324.96 156.08 C 332.56 155.18 340.34 153.17 346.69 148.74 C 349.81 146.52 351.89 142.53 350.44 138.73 C 347.02 127.88 344.55 116.75 341.04 105.93 C 384.42 110.05 426.52 125.94 462.34 150.68 C 491.73 170.38 516.63 196.53 535.60 226.35 C 556.56 259.32 569.73 297.22 573.51 336.10 C 576.62 366.81 573.98 398.09 565.79 427.85 C 552.23 477.20 523.20 522.11 484.04 555.02 C 481.13 557.57 478.30 560.36 474.71 561.93 C 476.93 558.79 479.16 555.62 481.93 552.92 C 493.02 542.27 501.95 529.42 508.39 515.47 C 513.62 505.22 516.78 494.01 518.38 482.65 C 521.41 465.02 518.72 446.78 512.87 430.01 C 507.07 414.22 498.20 399.55 486.95 387.05 C 480.54 380.81 474.52 374.15 467.68 368.36 C 456.43 359.22 444.28 351.11 431.13 344.95 C 414.78 336.46 397.30 330.25 379.48 325.68 C 361.07 320.69 342.01 318.70 323.04 317.38 C 291.25 316.67 259.12 320.13 228.77 329.91 C 208.36 336.23 188.84 345.40 170.85 356.92 C 157.48 365.88 145.46 376.72 134.76 388.72 C 128.23 396.69 121.88 404.93 117.30 414.20 C 113.08 421.96 110.00 430.26 107.21 438.62 C 101.46 420.84 99.15 402.17 97.12 383.67 C 96.68 372.15 94.72 360.62 96.00 349.09 C 96.70 342.24 96.58 335.34 97.15 328.48 C 98.92 311.63 100.81 294.72 105.08 278.27 C 111.69 249.20 123.11 221.22 138.76 195.85 C 143.53 188.68 147.71 180.98 153.89 174.89 C 170.14 159.63 187.90 146.13 205.33 132.28 C 209.68 129.02 214.23 125.94 217.96 121.95 C 217.42 121.99 216.35 122.07 215.81 122.11 C 220.82 119.08 226.74 118.26 232.16 116.22 M 212.38 215.27 C 209.47 215.94 207.09 218.94 207.34 221.98 C 207.40 228.55 207.08 235.15 207.52 241.71 C 209.22 247.96 219.03 248.49 221.45 242.43 C 222.20 236.99 221.59 231.46 221.80 225.99 C 221.62 222.99 222.50 219.30 219.94 217.06 C 218.10 214.82 214.97 214.94 212.38 215.27 M 396.03 216.98 C 393.74 219.81 394.50 223.67 394.39 227.03 C 394.72 232.89 393.58 238.93 395.55 244.60 C 397.35 246.03 399.63 246.83 401.94 246.66 C 405.37 246.79 408.76 243.47 408.61 240.02 C 408.63 233.46 408.81 226.89 408.52 220.33 C 407.46 214.87 399.74 213.34 396.03 216.98 M 182.43 252.49 C 180.84 253.09 179.76 254.55 178.95 256.00 C 177.22 258.62 179.65 261.67 181.75 263.22 C 184.67 264.37 187.94 263.87 191.01 263.98 C 196.99 263.76 202.98 264.25 208.96 263.83 C 212.02 263.75 214.15 260.76 214.73 258.00 C 214.14 255.24 212.02 252.25 208.95 252.16 C 203.98 251.71 198.98 252.17 194.00 252.03 C 190.15 252.07 186.22 251.66 182.43 252.49 M 405.42 252.47 C 403.24 253.46 401.72 255.70 401.25 258.00 C 401.85 260.76 403.97 263.75 407.05 263.83 C 412.02 264.24 417.01 263.81 421.99 263.95 C 425.84 263.91 429.77 264.33 433.57 263.51 C 435.76 262.57 437.22 260.28 437.74 258.00 C 437.11 255.25 435.03 252.26 431.95 252.18 C 426.98 251.72 421.98 252.17 417.00 252.03 C 413.14 252.06 409.21 251.63 405.42 252.47 M 264.83 262.88 C 262.07 268.10 262.21 274.16 262.58 279.89 C 263.46 285.22 267.50 289.63 272.33 291.85 C 276.75 294.16 281.90 293.77 286.73 293.74 C 293.19 293.70 299.44 289.62 301.74 283.52 C 301.88 282.61 303.55 280.63 303.97 282.54 C 305.31 286.31 308.21 289.35 311.88 290.94 C 315.92 293.11 320.64 292.73 325.06 292.63 C 332.48 292.41 339.82 285.81 338.93 278.01 C 339.61 271.83 337.16 265.43 332.06 261.76 C 331.55 262.97 331.04 264.33 329.73 264.89 C 333.74 269.20 336.97 275.68 334.43 281.52 C 332.73 285.66 328.18 287.58 324.03 288.22 C 318.33 288.87 312.07 287.22 308.07 282.94 C 304.84 279.28 304.33 274.18 304.63 269.51 C 303.20 269.52 301.78 269.52 300.36 269.52 C 300.41 273.64 300.78 278.00 298.61 281.71 C 295.14 288.24 286.82 290.19 280.01 289.04 C 275.07 288.21 269.43 286.11 267.54 281.01 C 266.74 274.74 266.85 267.98 270.07 262.33 C 268.34 262.49 266.43 262.07 264.83 262.88 Z"/>
    </g>
    <g id="#cb9ee8ff">
        <path fill="#cb9ee8" opacity="1.00"
              d=" M 203.12 127.24 C 207.38 125.62 211.30 123.00 215.81 122.11 C 216.35 122.07 217.42 121.99 217.96 121.95 C 214.23 125.94 209.68 129.02 205.33 132.28 C 187.90 146.13 170.14 159.63 153.89 174.89 C 147.71 180.98 143.53 188.68 138.76 195.85 C 123.11 221.22 111.69 249.20 105.08 278.27 C 100.81 294.72 98.92 311.63 97.15 328.48 C 96.58 335.34 96.70 342.24 96.00 349.09 C 94.72 360.62 96.68 372.15 97.12 383.67 C 99.15 402.17 101.46 420.84 107.21 438.62 C 107.09 439.70 106.97 440.79 106.85 441.88 C 101.58 462.62 103.13 484.91 110.07 505.09 C 114.40 516.35 119.71 527.36 127.04 536.99 C 132.05 543.56 137.27 550.02 143.35 555.65 C 146.48 558.51 149.29 561.69 152.10 564.86 C 145.74 561.12 140.41 555.92 134.82 551.16 C 110.40 530.04 91.03 503.60 75.90 475.19 C 59.92 443.88 50.72 409.14 49.26 374.01 C 49.36 363.32 49.06 352.63 49.33 341.95 C 50.73 322.35 54.20 302.86 60.31 284.17 C 70.08 255.40 84.33 228.05 103.18 204.16 C 110.86 194.26 119.69 185.35 127.96 175.96 C 130.76 172.69 134.45 170.41 137.80 167.76 C 144.94 161.87 152.14 156.00 159.90 150.93 C 173.63 141.89 187.83 133.40 203.12 127.24 Z"/>
    </g>
    <g id="#000000ff">
        <path fill="#000000" opacity="1.00"
              d=" M 212.38 215.27 C 214.97 214.94 218.10 214.82 219.94 217.06 C 222.50 219.30 221.62 222.99 221.80 225.99 C 221.59 231.46 222.20 236.99 221.45 242.43 C 219.03 248.49 209.22 247.96 207.52 241.71 C 207.08 235.15 207.40 228.55 207.34 221.98 C 207.09 218.94 209.47 215.94 212.38 215.27 Z"/>
        <path fill="#000000" opacity="1.00"
              d=" M 396.03 216.98 C 399.74 213.34 407.46 214.87 408.52 220.33 C 408.81 226.89 408.63 233.46 408.61 240.02 C 408.76 243.47 405.37 246.79 401.94 246.66 C 399.63 246.83 397.35 246.03 395.55 244.60 C 393.58 238.93 394.72 232.89 394.39 227.03 C 394.50 223.67 393.74 219.81 396.03 216.98 Z"/>
        <path fill="#000000" opacity="1.00"
              d=" M 264.83 262.88 C 266.43 262.07 268.34 262.49 270.07 262.33 C 266.85 267.98 266.74 274.74 267.54 281.01 C 269.43 286.11 275.07 288.21 280.01 289.04 C 286.82 290.19 295.14 288.24 298.61 281.71 C 300.78 278.00 300.41 273.64 300.36 269.52 C 301.78 269.52 303.20 269.52 304.63 269.51 C 304.33 274.18 304.84 279.28 308.07 282.94 C 312.07 287.22 318.33 288.87 324.03 288.22 C 328.18 287.58 332.73 285.66 334.43 281.52 C 336.97 275.68 333.74 269.20 329.73 264.89 C 331.04 264.33 331.55 262.97 332.06 261.76 C 337.16 265.43 339.61 271.83 338.93 278.01 C 339.82 285.81 332.48 292.41 325.06 292.63 C 320.64 292.73 315.92 293.11 311.88 290.94 C 308.21 289.35 305.31 286.31 303.97 282.54 C 303.55 280.63 301.88 282.61 301.74 283.52 C 299.44 289.62 293.19 293.70 286.73 293.74 C 281.90 293.77 276.75 294.16 272.33 291.85 C 267.50 289.63 263.46 285.22 262.58 279.89 C 262.21 274.16 262.07 268.10 264.83 262.88 Z"/>
    </g>
    <g id="#ffc2e5ff">
        <path fill="#ffc2e5" opacity="1.00"
              d=" M 182.43 252.49 C 186.22 251.66 190.15 252.07 194.00 252.03 C 198.98 252.17 203.98 251.71 208.95 252.16 C 212.02 252.25 214.14 255.24 214.73 258.00 C 214.15 260.76 212.02 263.75 208.96 263.83 C 202.98 264.25 196.99 263.76 191.01 263.98 C 187.94 263.87 184.67 264.37 181.75 263.22 C 179.65 261.67 177.22 258.62 178.95 256.00 C 179.76 254.55 180.84 253.09 182.43 252.49 Z"/>
        <path fill="#ffc2e5" opacity="1.00"
              d=" M 405.42 252.47 C 409.21 251.63 413.14 252.06 417.00 252.03 C 421.98 252.17 426.98 251.72 431.95 252.18 C 435.03 252.26 437.11 255.25 437.74 258.00 C 437.22 260.28 435.76 262.57 433.57 263.51 C 429.77 264.33 425.84 263.91 421.99 263.95 C 417.01 263.81 412.02 264.24 407.05 263.83 C 403.97 263.75 401.85 260.76 401.25 258.00 C 401.72 255.70 403.24 253.46 405.42 252.47 Z"/>
    </g>
    <g id="#e3e3e3ff">
        <path fill="#e3e3e3" opacity="1.00"
              d=" M 228.77 329.91 C 259.12 320.13 291.25 316.67 323.04 317.38 C 342.01 318.70 361.07 320.69 379.48 325.68 C 397.30 330.25 414.78 336.46 431.13 344.95 C 444.28 351.11 456.43 359.22 467.68 368.36 C 474.52 374.15 480.54 380.81 486.95 387.05 C 498.20 399.55 507.07 414.22 512.87 430.01 C 518.72 446.78 521.41 465.02 518.38 482.65 C 516.78 494.01 513.62 505.22 508.39 515.47 C 501.95 529.42 493.02 542.27 481.93 552.92 C 479.16 555.62 476.93 558.79 474.71 561.93 C 472.28 565.12 468.78 567.21 465.56 569.48 C 449.99 580.08 434.00 590.33 416.40 597.23 C 393.22 607.22 368.49 613.22 343.48 616.30 C 337.44 617.10 331.33 616.21 325.31 617.15 C 318.91 618.14 312.44 617.50 306.00 617.74 C 301.96 617.84 297.93 617.48 293.92 616.96 C 288.18 616.24 282.38 617.04 276.63 616.49 C 276.37 616.24 275.84 615.73 275.58 615.47 C 271.92 611.39 266.32 610.39 261.47 608.38 C 253.84 605.57 246.73 601.59 239.15 598.66 C 228.80 594.67 219.21 588.99 209.89 583.04 C 204.26 579.36 198.37 576.07 193.06 571.92 C 179.77 561.72 166.70 550.97 156.05 537.95 C 151.02 531.68 144.82 526.38 140.47 519.57 C 128.01 500.78 118.20 480.22 111.44 458.71 C 109.54 453.21 107.74 447.65 106.85 441.88 C 106.97 440.79 107.09 439.70 107.21 438.62 C 110.00 430.26 113.08 421.96 117.30 414.20 C 121.88 404.93 128.23 396.69 134.76 388.72 C 145.46 376.72 157.48 365.88 170.85 356.92 C 188.84 345.40 208.36 336.23 228.77 329.91 Z"/>
    </g>
    <g id="#cececeff">
        <path fill="#cecece" opacity="1.00"
              d=" M 110.07 505.09 C 103.13 484.91 101.58 462.62 106.85 441.88 C 107.74 447.65 109.54 453.21 111.44 458.71 C 118.20 480.22 128.01 500.78 140.47 519.57 C 144.82 526.38 151.02 531.68 156.05 537.95 C 166.70 550.97 179.77 561.72 193.06 571.92 C 198.37 576.07 204.26 579.36 209.89 583.04 C 219.21 588.99 228.80 594.67 239.15 598.66 C 246.73 601.59 253.84 605.57 261.47 608.38 C 266.32 610.39 271.92 611.39 275.58 615.47 C 269.03 614.74 262.53 613.59 256.00 612.77 C 223.39 606.23 191.99 593.25 164.62 574.32 C 160.32 571.34 155.68 568.73 152.10 564.86 C 149.29 561.69 146.48 558.51 143.35 555.65 C 137.27 550.02 132.05 543.56 127.04 536.99 C 119.71 527.36 114.40 516.35 110.07 505.09 Z"/>
    </g>
</svg>
